<svg width="101" height="40" viewBox="0 0 101 40" fill="none" xmlns="http://www.w3.org/2000/svg">
<g filter="url(#filter0_i_41_358)">
<path d="M9.05094 5.21074C10.3572 5.21074 11.5468 5.52027 12.618 6.13742C13.6874 6.75078 14.5366 7.63378 15.1638 8.78833C15.7947 9.94289 16.1111 11.2835 16.1111 12.8065C16.1111 14.337 15.7947 15.6834 15.1638 16.8474C14.5366 18.0077 13.6874 18.9021 12.618 19.5287C11.5468 20.1516 10.3572 20.463 9.05094 20.463C7.15639 20.463 5.73917 19.8914 4.80299 18.7464V20.2199H0V6.10352e-05H5.03981V6.72989C6.01669 5.71776 7.3525 5.21074 9.05094 5.21074ZM7.98526 16.3537C8.87333 16.3537 9.59859 16.0404 10.161 15.4118C10.7272 14.7852 11.0121 13.9155 11.0121 12.8065C11.0121 11.7184 10.7272 10.8658 10.161 10.2467C9.59859 9.62956 8.87333 9.32004 7.98526 9.32004C7.10088 9.32004 6.37562 9.62956 5.80948 10.2467C5.24703 10.8658 4.96581 11.7184 4.96581 12.8065C4.96581 13.9155 5.24703 14.7852 5.80948 15.4118C6.37562 16.0404 7.10088 16.3537 7.98526 16.3537Z" fill="white"/>
<path d="M22.8521 20.463C21.3128 20.463 19.9233 20.1364 18.6856 19.4832C17.446 18.8299 16.4765 17.9241 15.7771 16.7639C15.0815 15.5998 14.7336 14.2801 14.7336 12.8065C14.7336 11.3538 15.0815 10.0473 15.7771 8.88709C16.4765 7.72305 17.4423 6.81915 18.6708 6.17541C19.903 5.53357 21.298 5.21075 22.8521 5.21075C24.4099 5.21075 25.8087 5.53357 27.0483 6.17541C28.286 6.81915 29.2499 7.71735 29.9419 8.8719C30.632 10.0265 30.978 11.3386 30.978 12.8065C30.978 14.2801 30.632 15.5998 29.9419 16.7639C29.2499 17.9241 28.286 18.8299 27.0483 19.4832C25.8087 20.1364 24.4099 20.463 22.8521 20.463ZM22.8521 16.3537C23.7402 16.3537 24.4654 16.0404 25.0279 15.4118C25.594 14.7852 25.879 13.9155 25.879 12.8065C25.879 11.7184 25.594 10.8658 25.0279 10.2467C24.4654 9.62958 23.7402 9.32005 22.8521 9.32005C21.9677 9.32005 21.2425 9.62958 20.6763 10.2467C20.1139 10.8658 19.8327 11.7184 19.8327 12.8065C19.8327 13.9155 20.1139 14.7852 20.6763 15.4118C21.2425 16.0404 21.9677 16.3537 22.8521 16.3537Z" fill="white"/>
<path d="M49.2418 5.21075C51.0124 5.21075 52.424 5.75575 53.4749 6.84384C54.5295 7.93383 55.0586 9.57641 55.0586 11.7735V20.2199H50.0114V12.6166C50.0114 11.5836 49.8209 10.8221 49.4416 10.3303C49.0604 9.84036 48.5257 9.5935 47.8356 9.5935C47.0752 9.5935 46.4628 9.86694 46.0003 10.4138C45.5415 10.9569 45.312 11.7811 45.312 12.89V20.2199H40.2722V12.6166C40.2722 10.6018 39.547 9.5935 38.0964 9.5935C37.3157 9.5935 36.694 9.86694 36.2315 10.4138C35.7726 10.9569 35.5432 11.7811 35.5432 12.89V20.2199H30.5034V5.45382H35.3064V7.00335C35.8393 6.40708 36.4702 5.95893 37.201 5.6589C37.9355 5.36077 38.7366 5.21075 39.6062 5.21075C40.6163 5.21075 41.5192 5.40065 42.3148 5.78043C43.1085 6.16022 43.7542 6.7413 44.2537 7.51986C44.8199 6.77548 45.5359 6.2058 46.3999 5.81082C47.2676 5.41204 48.2149 5.21075 49.2418 5.21075Z" fill="white"/>
<path d="M64.4826 5.21068C65.7888 5.21068 66.9784 5.52021 68.0497 6.13736C69.1191 6.75072 69.9683 7.63372 70.5955 8.78827C71.2264 9.94283 71.5428 11.2835 71.5428 12.8064C71.5428 14.337 71.2264 15.6833 70.5955 16.8474C69.9683 18.0076 69.1191 18.902 68.0497 19.5287C66.9784 20.1515 65.7888 20.4629 64.4826 20.4629C62.588 20.4629 61.1708 19.8913 60.2346 18.7463V20.2199H55.4316V0H60.4715V6.72983C61.4483 5.71769 62.7841 5.21068 64.4826 5.21068ZM63.4169 16.3536C64.305 16.3536 65.0302 16.0403 65.5927 15.4118C66.1588 14.7851 66.4437 13.9154 66.4437 12.8064C66.4437 11.7183 66.1588 10.8657 65.5927 10.2467C65.0302 9.6295 64.305 9.31998 63.4169 9.31998C62.5325 9.31998 61.8073 9.6295 61.2411 10.2467C60.6787 10.8657 60.3974 11.7183 60.3974 12.8064C60.3974 13.9154 60.6787 14.7851 61.2411 15.4118C61.8073 16.0403 62.5325 16.3536 63.4169 16.3536Z" fill="white"/>
<path d="M77.1958 5.21075C79.588 5.21075 81.4104 5.77094 82.6648 6.88941C83.9229 8.00409 84.552 9.71313 84.552 12.0165V20.2199H79.8526V18.3134C79.1273 19.7471 77.7101 20.463 75.6046 20.463C74.489 20.463 73.5251 20.2617 72.711 19.8629C71.8969 19.4642 71.2827 18.9249 70.8682 18.245C70.4538 17.5614 70.2466 16.7848 70.2466 15.9132C70.2466 14.5155 70.7665 13.4331 71.8081 12.6622C72.8534 11.8874 74.4649 11.5 76.6407 11.5H79.5047C79.4196 9.941 78.4039 9.16054 76.4557 9.16054C75.7637 9.16054 75.0644 9.27448 74.3539 9.50235C73.6472 9.72642 73.0477 10.0378 72.5556 10.4366L70.8534 6.92739C71.6527 6.3805 72.6222 5.95893 73.7619 5.6589C74.9016 5.36077 76.045 5.21075 77.1958 5.21075ZM77.0107 17.1968C77.5972 17.1968 78.1097 17.0525 78.5501 16.7639C78.9941 16.4714 79.3123 16.0423 79.5047 15.4802V14.1965H77.329C75.8636 14.1965 75.131 14.6978 75.131 15.7005C75.131 16.1524 75.2975 16.5132 75.6342 16.7867C75.9691 17.0601 76.4279 17.1968 77.0107 17.1968Z" fill="white"/>
<path d="M100.082 5.45386L93.8731 20.82C93.1478 22.6373 92.2616 23.9134 91.2162 24.6483C90.169 25.3813 88.8943 25.7497 87.3901 25.7497C86.6297 25.7497 85.8656 25.6243 85.0959 25.3775C84.3263 25.1344 83.7009 24.8116 83.2236 24.4128L84.9775 20.7897C85.2587 21.0631 85.5992 21.2758 85.9988 21.4277C86.3984 21.5834 86.7999 21.6632 87.2051 21.6632C87.6824 21.6632 88.0784 21.5606 88.3892 21.3593C88.7 21.1618 88.9609 20.8447 89.1737 20.4099L83.0164 5.45386H88.1894L91.7195 14.47L95.2792 5.45386H100.082Z" fill="white"/>
<mask id="mask0_41_358" style="mask-type:luminance" maskUnits="userSpaceOnUse" x="15" y="3" width="17" height="19">
<path d="M15.0903 3.7569H31.973V21.0828H15.0903V3.7569Z" fill="white"/>
</mask>
<g mask="url(#mask0_41_358)">
<mask id="mask1_41_358" style="mask-type:luminance" maskUnits="userSpaceOnUse" x="15" y="3" width="17" height="19">
<path d="M23.5307 3.7569C18.8702 3.7569 15.0903 7.63452 15.0903 12.4198C15.0903 17.2033 18.8702 21.0828 23.5307 21.0828C28.1931 21.0828 31.973 17.2033 31.973 12.4198C31.973 7.63452 28.1931 3.7569 23.5307 3.7569Z" fill="white"/>
</mask>
<g mask="url(#mask1_41_358)">
<path d="M15.0903 3.7569H31.973V21.0828H15.0903V3.7569Z" fill="white"/>
</g>
</g>
<mask id="mask2_41_358" style="mask-type:luminance" maskUnits="userSpaceOnUse" x="14" y="3" width="19" height="19">
<path d="M14.3022 3.35052H32.0637V21.5803H14.3022V3.35052Z" fill="white"/>
</mask>
<g mask="url(#mask2_41_358)">
<path d="M30.01 16.4928C29.5031 17.3929 28.48 17.7993 27.5456 17.5467L25.2551 19.8957L24.9776 20.1824L24.6982 19.8957C24.3005 20.3097 23.7473 20.566 23.1349 20.566C21.9212 20.566 20.935 19.5539 20.935 18.3082C20.935 17.3568 21.5086 16.5422 22.319 16.2099L21.516 15.3838L21.1867 15.7199L20.9091 16.0067L20.3652 15.4484C20.3356 16.1985 19.9452 16.9163 19.2662 17.3188C18.2153 17.9417 16.8684 17.5714 16.2616 16.4928C15.6529 15.4123 16.0136 14.0299 17.0645 13.407C17.9748 12.8677 19.1015 13.069 19.7842 13.8286L26.1192 7.32664L26.6021 7.82227C26.7223 7.70643 26.8574 7.60389 27.0035 7.51654C28.0563 6.89369 29.4013 7.26398 30.01 8.34447C30.6187 9.42307 30.258 10.8055 29.2052 11.4283C29.1405 11.4682 29.0739 11.5024 29.0054 11.5347L29.5808 12.1253L30.1877 11.5024L30.4652 11.7891L30.7168 12.0455L30.9962 12.3322L31.0813 12.4215L31.3606 12.7063L31.8102 13.1678L30.2321 14.7876C30.3764 15.3439 30.3135 15.9554 30.01 16.4928ZM16.2616 8.34447C16.8684 7.26398 18.2153 6.89369 19.2662 7.51654C20.3189 8.14129 20.6797 9.52181 20.0729 10.6023C19.4642 11.6828 18.1191 12.0531 17.0645 11.4283C16.0136 10.8055 15.6529 9.42307 16.2616 8.34447ZM23.1349 4.26936C24.3504 4.26936 25.3366 5.27959 25.3366 6.52719C25.3366 7.77479 24.3504 8.78693 23.1349 8.78693C21.9212 8.78693 20.935 7.77479 20.935 6.52719C20.935 5.27959 21.9212 4.26936 23.1349 4.26936ZM23.1349 3.35217C18.2579 3.35217 14.3022 7.4102 14.3022 12.4177C14.3022 17.4252 18.2579 21.4832 23.1349 21.4832C28.0137 21.4832 31.9693 17.4252 31.9693 12.4177C31.9693 7.4102 28.0137 3.35217 23.1349 3.35217Z" fill="#EF8A4C"/>
</g>
<path d="M30.3482 13.7473L30.0263 14.0777C30.0115 14.0929 29.9948 14.0986 29.9744 14.0986C29.9559 14.0986 29.9374 14.091 29.9226 14.0758L29.388 13.527L29.3824 13.5232C29.3528 13.4928 29.3528 13.4453 29.3824 13.415L29.7043 13.0864C29.7173 13.0713 29.7358 13.0637 29.7561 13.0637C29.7746 13.0637 29.7931 13.0713 29.8079 13.0864L30.3463 13.6409C30.3759 13.6694 30.3759 13.7188 30.3482 13.7473ZM29.4509 14.6683L29.1289 14.9987C29.1141 15.0139 29.0956 15.0196 29.0771 15.0196C29.0586 15.0196 29.0401 15.012 29.0253 14.9968L28.4851 14.4442C28.4573 14.4138 28.4573 14.3663 28.4851 14.3378L28.807 14.0074C28.82 13.9922 28.8385 13.9846 28.857 13.9846C28.8773 13.9846 28.8958 13.9922 28.9106 14.0074L29.449 14.56C29.4786 14.5904 29.4786 14.6379 29.4509 14.6683ZM28.5535 15.5873L28.2316 15.9197C28.2187 15.9348 28.1983 15.9405 28.1817 15.9405C28.1632 15.9405 28.1428 15.9329 28.1261 15.9178L27.5878 15.3633C27.56 15.3348 27.56 15.2873 27.5878 15.2588L27.9097 14.9284C27.9245 14.9132 27.9411 14.9056 27.9596 14.9056C27.98 14.9056 27.9985 14.9132 28.0133 14.9284L28.5517 15.4829C28.5813 15.5114 28.5813 15.5589 28.5535 15.5873ZM27.6562 16.5102L27.3343 16.8406C27.3213 16.8539 27.301 16.8615 27.2843 16.8615C27.264 16.8615 27.2455 16.8539 27.2307 16.8387L26.6923 16.2843C26.6627 16.2558 26.6627 16.2083 26.6904 16.1798L27.0124 15.8494C27.0272 15.8342 27.0438 15.8266 27.0623 15.8266C27.0827 15.8266 27.1012 15.8342 27.116 15.8494L27.6544 16.4039C27.684 16.4324 27.684 16.4817 27.6562 16.5102ZM26.7589 17.4312L26.437 17.7597C26.4222 17.7749 26.4055 17.7825 26.387 17.7825C26.3667 17.7825 26.3482 17.7749 26.3334 17.7597L25.795 17.2052C25.7654 17.1749 25.7654 17.1293 25.7931 17.1008L26.115 16.7685C26.128 16.7552 26.1483 16.7476 26.165 16.7476C26.1853 16.7476 26.2038 16.7552 26.2186 16.7704L26.757 17.3249C26.7866 17.3534 26.7866 17.4027 26.7589 17.4312ZM25.8616 18.3522L25.5396 18.6826C25.5267 18.6959 25.5082 18.7035 25.4897 18.7035C25.4693 18.7035 25.4508 18.6959 25.436 18.6807L24.8976 18.1281C24.868 18.0977 24.868 18.0503 24.8958 18.0218L25.2177 17.6895C25.2251 17.6819 25.2362 17.6762 25.2473 17.6724C25.2547 17.6705 25.2621 17.6686 25.2677 17.6686C25.288 17.6686 25.3065 17.6762 25.3213 17.6914L25.8597 18.2459C25.8893 18.2743 25.8912 18.3237 25.8616 18.3522ZM24.5535 17.3818L23.2565 16.0526L22.0114 14.7746C21.8856 14.6436 21.8856 14.4328 22.0114 14.3018L22.7108 13.5859L24.2723 11.9813L26.017 10.1906L26.0799 10.1279C26.1428 10.0614 26.2279 10.0292 26.3111 10.0292C26.3944 10.0292 26.4777 10.0614 26.5424 10.1279L28.1058 11.7325H28.1076L29.0827 12.7332C29.2103 12.8662 29.2103 13.0788 29.0827 13.208L25.016 17.3818C24.9513 17.4483 24.868 17.4806 24.7848 17.4806C24.7015 17.4806 24.6164 17.4483 24.5535 17.3818ZM21.6451 12.9478C21.6155 12.9193 21.6155 12.87 21.6451 12.8415L21.967 12.5111C21.9799 12.4959 21.9984 12.4902 22.0169 12.4902C22.0354 12.4902 22.0539 12.4978 22.0706 12.513L22.609 13.0656C22.6386 13.0959 22.6386 13.1434 22.6108 13.1719L22.2889 13.5023C22.2741 13.5175 22.2556 13.5251 22.239 13.5251C22.2186 13.5251 22.2001 13.5175 22.1853 13.5023L21.6451 12.9478ZM21.7135 14.0929L21.3916 14.4252C21.3768 14.4385 21.3583 14.4442 21.3398 14.4442C21.3213 14.4442 21.3028 14.4385 21.288 14.4214L20.7477 13.8688C20.7181 13.8403 20.7181 13.7909 20.7459 13.7625L21.0697 13.432C21.0826 13.4188 21.1011 13.4112 21.1196 13.4112C21.1381 13.4112 21.1566 13.4188 21.1733 13.4339L21.7117 13.9865C21.7413 14.0169 21.7413 14.0644 21.7135 14.0929ZM22.5424 11.9205L22.8643 11.5901C22.8773 11.5768 22.8958 11.5692 22.9143 11.5692C22.9328 11.5692 22.9513 11.5768 22.9661 11.592L23.5063 12.1446C23.5359 12.175 23.5359 12.2224 23.5063 12.2509L23.1862 12.5813C23.1733 12.5965 23.1529 12.6041 23.1344 12.6041C23.1159 12.6041 23.0956 12.5946 23.0826 12.5813L22.5424 12.0268C22.5128 11.9984 22.5128 11.949 22.5424 11.9205ZM23.4397 10.9995L23.7616 10.6691C23.7746 10.6558 23.7931 10.6482 23.8116 10.6482C23.8301 10.6482 23.8486 10.6558 23.8634 10.671L24.4036 11.2236C24.4332 11.254 24.4332 11.3014 24.4055 11.3299L24.0836 11.6603C24.0688 11.6755 24.0503 11.6831 24.0318 11.6831C24.0133 11.6831 23.9929 11.6736 23.9781 11.6584L23.4397 11.1059C23.4101 11.0774 23.4101 11.0299 23.4397 10.9995ZM24.3352 10.0785L24.6571 9.74812C24.6719 9.73482 24.6904 9.72723 24.7089 9.72723C24.7274 9.72723 24.7478 9.73482 24.7607 9.75001L25.301 10.3026C25.3287 10.333 25.3306 10.3805 25.301 10.4108L24.9809 10.7394C24.9661 10.7546 24.9476 10.7602 24.9291 10.7602C24.9106 10.7602 24.8902 10.7546 24.8754 10.7394L24.337 10.1849C24.3074 10.1564 24.3074 10.1089 24.3352 10.0785ZM25.2325 9.15755L25.5544 8.82713C25.5692 8.81384 25.5877 8.80624 25.6062 8.80624C25.6247 8.80624 25.6451 8.81384 25.658 8.82903L25.9337 9.11007L26.1983 9.38162C26.226 9.412 26.2279 9.45948 26.1983 9.48986L25.8782 9.81838C25.8634 9.83357 25.8449 9.84116 25.8264 9.84116C25.8079 9.84116 25.7876 9.83357 25.7728 9.81838L25.2344 9.26389C25.2066 9.2354 25.2048 9.18793 25.2325 9.15755ZM31.0808 12.9934L30.9236 13.1567C30.9088 13.17 30.8903 13.1776 30.8718 13.1776C30.8533 13.1776 30.8329 13.17 30.82 13.1548L30.2797 12.6022C30.2501 12.5718 30.252 12.5244 30.2797 12.494L30.437 12.3326L30.1872 12.0743L29.8098 12.4598C29.7469 12.5263 29.6636 12.5585 29.5804 12.5585C29.4953 12.5585 29.412 12.5263 29.3491 12.4598L26.8088 9.85256C26.6812 9.72153 26.6812 9.51075 26.8088 9.37972L27.1844 8.99424L26.9328 8.73598L26.7755 8.89929C26.7607 8.91258 26.7422 8.92018 26.7237 8.92018C26.7052 8.92018 26.6849 8.91258 26.6701 8.89739L26.1317 8.3448C26.1039 8.31442 26.1039 8.26695 26.1298 8.23656L26.2889 8.07515L26.1187 7.90045L22.9087 11.1932L19.843 14.3397L20.0132 14.5163L20.1723 14.353C20.1853 14.3397 20.2038 14.3321 20.2223 14.3321C20.2427 14.3321 20.2612 14.3397 20.2741 14.3549L20.8143 14.9075C20.8439 14.9379 20.8439 14.9854 20.8162 15.0139L20.6571 15.1772L20.9087 15.4354L21.2843 15.048C21.3472 14.9835 21.4323 14.9512 21.5156 14.9512C21.5988 14.9512 21.6821 14.9835 21.7468 15.048L22.7552 16.083L24.2871 17.6572C24.4147 17.7863 24.4147 17.999 24.2871 18.13L23.9097 18.5174L24.1631 18.7738L24.3204 18.6123C24.3352 18.5972 24.3537 18.5896 24.3722 18.5896C24.3907 18.5896 24.4092 18.5972 24.424 18.6123L24.9624 19.1649C24.992 19.1953 24.9938 19.2428 24.9642 19.2732L24.807 19.4346L24.9772 19.6093L27.1363 17.3913L30.0818 14.3701L31.2529 13.1681L31.0808 12.9934Z" fill="#EF8A4C"/>
<path d="M14.3051 39.5293V40.0001H12.0923V36.9784H14.2459V37.4491H12.6399V38.2311H14.0682V38.6942H12.6399V39.5293H14.3051Z" fill="white"/>
<path d="M20.508 36.9784V40.0001H20.064L18.4358 37.9502V40.0001H17.8882V36.9784H18.3396L19.9678 39.0207V36.9784H20.508Z" fill="white"/>
<path d="M24.8726 37.4491H23.8958V36.9784H26.3972V37.4491H25.4203V40.0001H24.8726V37.4491Z" fill="white"/>
<path d="M31.9965 39.5293V40.0001H29.7837V36.9784H31.9373V37.4491H30.3313V38.2311H31.7597V38.6942H30.3313V39.5293H31.9965Z" fill="white"/>
<path d="M37.5109 40.0001L36.9115 39.1118C36.8856 39.1175 36.8467 39.1194 36.793 39.1194H36.127V40.0001H35.5793V36.9784H36.793C37.0484 36.9784 37.2704 37.022 37.4591 37.1075C37.6515 37.1948 37.7958 37.3181 37.8957 37.4795C37.9993 37.6427 38.0511 37.8325 38.0511 38.0489C38.0511 38.2766 37.9956 38.474 37.8883 38.6411C37.7792 38.8043 37.6238 38.9258 37.4221 39.0055L38.103 40.0001H37.5109ZM37.4961 38.0489C37.4961 37.8572 37.4332 37.711 37.3111 37.6085C37.1871 37.5023 37.0077 37.4491 36.7708 37.4491H36.127V38.6563H36.7708C37.0077 38.6563 37.1871 38.6069 37.3111 38.5044C37.4332 38.3981 37.4961 38.2463 37.4961 38.0489Z" fill="white"/>
<path d="M42.2315 37.4491H41.2546V36.9784H43.756V37.4491H42.7792V40.0001H42.2315V37.4491Z" fill="white"/>
<path d="M49.059 39.3016H47.5863L47.2902 40.0001H46.7278L48.0525 36.9784H48.5927L49.9248 40.0001H49.355L49.059 39.3016ZM48.874 38.8612L48.3189 37.5402L47.7713 38.8612H48.874Z" fill="white"/>
<path d="M53.2708 36.9784H53.8184V40.0001H53.2708V36.9784Z" fill="white"/>
<path d="M60.2097 36.9784V40.0001H59.7656L58.1375 37.9502V40.0001H57.5898V36.9784H58.0413L59.6694 39.0207V36.9784H60.2097Z" fill="white"/>
<path d="M66.6835 40.0001V37.9957L65.714 39.6508H65.4698L64.5003 38.0185V40.0001H63.9749V36.9784H64.4263L65.603 38.9827L66.7501 36.9784H67.2015V40.0001H66.6835Z" fill="white"/>
<path d="M73.1828 39.5293V40.0001H70.97V36.9784H73.1235V37.4491H71.5176V38.2311H72.9459V38.6942H71.5176V39.5293H73.1828Z" fill="white"/>
<path d="M79.3857 36.9784V40.0001H78.9416L77.3135 37.9502V40.0001H76.7659V36.9784H77.2173L78.8454 39.0207V36.9784H79.3857Z" fill="white"/>
<path d="M83.7511 37.4491H82.7742V36.9784H85.2756V37.4491H84.2987V40.0001H83.7511V37.4491Z" fill="white"/>
<path d="M24.2583 33.9881C23.0779 33.9881 22.0196 33.7451 21.0835 33.2589C20.151 32.7728 19.4257 32.1006 18.9077 31.2385C18.3896 30.3725 18.1306 29.3927 18.1306 28.2989C18.1306 27.2108 18.3896 26.2386 18.9077 25.3821C19.4257 24.5219 20.151 23.8535 21.0835 23.3769C22.0196 22.8964 23.0779 22.6553 24.2583 22.6553C25.472 22.6553 26.5174 22.9249 27.3962 23.4604C28.2731 23.9921 28.8985 24.7289 29.2685 25.6708L26.3675 27.1899C25.8828 26.2025 25.176 25.7088 24.2435 25.7088C23.5719 25.7088 23.015 25.9404 22.571 26.4C22.1306 26.8614 21.9123 27.4938 21.9123 28.2989C21.9123 29.1249 22.1306 29.7706 22.571 30.2358C23.015 30.703 23.5719 30.9346 24.2435 30.9346C25.176 30.9346 25.8828 30.4409 26.3675 29.4535L29.2685 30.9726C28.8985 31.9202 28.2731 32.6589 27.3962 33.1906C26.5174 33.7223 25.472 33.9881 24.2583 33.9881Z" fill="white"/>
<path d="M33.1551 22.6553C34.9313 22.6553 36.2856 23.0711 37.2181 23.901C38.1505 24.7327 38.6168 26.0031 38.6168 27.714V33.8058H35.1237V32.393C34.5853 33.4564 33.5344 33.9881 31.971 33.9881C31.1422 33.9881 30.4243 33.84 29.8175 33.5476C29.2143 33.2494 28.7592 32.8469 28.4483 32.3398C28.1412 31.8347 27.9895 31.2575 27.9895 30.608C27.9895 29.5712 28.3762 28.766 29.1514 28.1926C29.9248 27.621 31.1218 27.3342 32.7407 27.3342H34.8721C34.8018 26.1702 34.045 25.5872 32.6001 25.5872C32.0857 25.5872 31.5658 25.6746 31.0386 25.8455C30.515 26.0126 30.0709 26.2462 29.7064 26.5443L28.4409 23.9314C29.033 23.5269 29.7527 23.2136 30.6019 22.9895C31.4493 22.7673 32.3004 22.6553 33.1551 22.6553ZM33.0145 31.5575C33.4475 31.5575 33.8286 31.4511 34.1542 31.2385C34.4835 31.022 34.7241 30.703 34.8721 30.2814V29.3319H33.2513C32.1597 29.3319 31.6158 29.7041 31.6158 30.4485C31.6158 30.7827 31.7379 31.0524 31.9858 31.2537C32.2375 31.4568 32.5797 31.5575 33.0145 31.5575Z" fill="white"/>
<path d="M45.8535 22.6553C47.1801 22.6553 48.2476 23.0616 49.058 23.8706C49.8665 24.6814 50.2717 25.9025 50.2717 27.5317V33.8058H46.5196V28.1622C46.5196 26.6639 45.935 25.9138 44.7657 25.9138C44.1237 25.9138 43.6075 26.1322 43.2189 26.5671C42.8341 26.9981 42.6417 27.6438 42.6417 28.504V33.8058H38.897V22.8376H42.4641V24.0301C42.8822 23.5858 43.3817 23.2458 43.959 23.0123C44.5362 22.7749 45.1671 22.6553 45.8535 22.6553Z" fill="white"/>
<path d="M61.7871 22.8375L57.3689 33.8057H53.5058L49.1099 22.8375H52.9508L55.5114 29.5369L58.2126 22.8375H61.7871Z" fill="white"/>
<path d="M65.2179 22.6553C66.994 22.6553 68.3483 23.0711 69.2808 23.901C70.2133 24.7327 70.6795 26.0031 70.6795 27.714V33.8058H67.1864V32.393C66.648 33.4564 65.5972 33.9881 64.0338 33.9881C63.2049 33.9881 62.487 33.84 61.8802 33.5476C61.277 33.2494 60.8219 32.8469 60.5111 32.3398C60.204 31.8347 60.0522 31.2575 60.0522 30.608C60.0522 29.5712 60.4389 28.766 61.2141 28.1926C61.9875 27.621 63.1846 27.3342 64.8034 27.3342H66.9348C66.8645 26.1702 66.1078 25.5872 64.6628 25.5872C64.1485 25.5872 63.6286 25.6746 63.1013 25.8455C62.5777 26.0126 62.1337 26.2462 61.7692 26.5443L60.5037 23.9314C61.0957 23.5269 61.8154 23.2136 62.6647 22.9895C63.512 22.7673 64.3631 22.6553 65.2179 22.6553ZM65.0773 31.5575C65.5102 31.5575 65.8913 31.4511 66.217 31.2385C66.5463 31.022 66.7868 30.703 66.9348 30.2814V29.3319H65.3141C64.2225 29.3319 63.6785 29.7041 63.6785 30.4485C63.6785 30.7827 63.8007 31.0524 64.0486 31.2537C64.3002 31.4568 64.6425 31.5575 65.0773 31.5575Z" fill="white"/>
<path d="M74.8367 33.9881C73.943 33.9881 73.0624 33.8837 72.1946 33.6767C71.3306 33.464 70.635 33.1906 70.1077 32.8564L71.2326 30.2206C71.7154 30.5359 72.2927 30.7827 72.9643 30.965C73.6341 31.1473 74.2983 31.2385 74.9551 31.2385C75.5619 31.2385 75.993 31.1758 76.2502 31.0486C76.5055 30.9175 76.635 30.7295 76.635 30.4865C76.635 30.2434 76.4796 30.0725 76.1688 29.97C75.8616 29.8693 75.3732 29.7725 74.7034 29.6813C73.8487 29.5712 73.1216 29.4288 72.5203 29.256C71.9227 29.0794 71.4065 28.7547 70.9735 28.2837C70.5388 27.809 70.3223 27.1482 70.3223 26.3012C70.3223 25.5986 70.524 24.972 70.9291 24.4251C71.338 23.8782 71.9319 23.449 72.7127 23.1338C73.4971 22.8148 74.437 22.6553 75.5323 22.6553C76.3057 22.6553 77.0735 22.7369 77.8339 22.8983C78.598 23.0616 79.2363 23.2914 79.7507 23.5895L78.6258 26.1949C77.6785 25.6594 76.6517 25.3897 75.5471 25.3897C74.9551 25.3897 74.5203 25.4619 74.2446 25.6024C73.9671 25.7448 73.8302 25.929 73.8302 26.1569C73.8302 26.4152 73.98 26.5956 74.2816 26.6962C74.5869 26.7988 75.0883 26.9013 75.7839 27.0076C76.6665 27.1444 77.3973 27.302 77.9745 27.4786C78.5518 27.6514 79.0513 27.9704 79.4768 28.4356C79.9061 28.9028 80.1207 29.5522 80.1207 30.3877C80.1207 31.0771 79.9153 31.6942 79.5064 32.2411C79.1013 32.7842 78.5018 33.2115 77.7081 33.5248C76.9125 33.8324 75.956 33.9881 74.8367 33.9881Z" fill="white"/>
</g>
<defs>
<filter id="filter0_i_41_358" x="0" y="0" width="100.082" height="41.8364" filterUnits="userSpaceOnUse" color-interpolation-filters="sRGB">
<feFlood flood-opacity="0" result="BackgroundImageFix"/>
<feBlend mode="normal" in="SourceGraphic" in2="BackgroundImageFix" result="shape"/>
<feColorMatrix in="SourceAlpha" type="matrix" values="0 0 0 0 0 0 0 0 0 0 0 0 0 0 0 0 0 0 127 0" result="hardAlpha"/>
<feOffset dy="1.83638"/>
<feGaussianBlur stdDeviation="4.26958"/>
<feComposite in2="hardAlpha" operator="arithmetic" k2="-1" k3="1"/>
<feColorMatrix type="matrix" values="0 0 0 0 1 0 0 0 0 1 0 0 0 0 1 0 0 0 0.59 0"/>
<feBlend mode="normal" in2="shape" result="effect1_innerShadow_41_358"/>
</filter>
</defs>
</svg>
